<svg width="21" height="21" viewBox="0 0 21 21" fill="none" xmlns="http://www.w3.org/2000/svg">
<path d="M2.89394e-05 0H8.58003L10.067 6.69L8.20703 8.55C9.30066 10.252 10.7477 11.6988 12.45 12.792L14.31 10.933L21 12.42V21H20C16.1504 21.0066 12.3814 19.8964 9.15003 17.804C6.76725 16.262 4.73807 14.2328 3.19603 11.85C1.10365 8.6186 -0.00653503 4.84967 2.89394e-05 1V0ZM2.02703 2C2.19554 5.11991 3.17776 8.14138 4.87603 10.764C6.26435 12.909 8.09107 14.7357 10.236 16.124C12.8586 17.8223 15.8801 18.8045 19 18.973V14.024L14.947 13.124L12.773 15.299L12.11 14.922C9.59267 13.4915 7.50857 11.4074 6.07803 8.89L5.70103 8.227L7.87603 6.053L6.97603 2H2.02703Z" fill="#696969"/>
</svg>
