<svg width="21" height="21" viewBox="0 0 21 21" fill="none" xmlns="http://www.w3.org/2000/svg">
<path d="M10.2917 7.4375C11.625 7.5 11.9688 8.63542 11.9896 9.16667H13.8542C13.7708 7.10417 12.3021 5.84375 10.2604 5.84375C7.95833 5.84375 6.25 7.29167 6.25 10.5625C6.25 12.5833 7.21875 14.9792 10.25 14.9792C12.5625 14.9792 13.8021 13.2604 13.8333 11.9062H11.9687C11.9375 12.5208 11.5 13.3437 10.2708 13.4062C8.90625 13.3646 8.33333 12.3021 8.33333 10.5625C8.33333 7.55208 9.66667 7.45833 10.2917 7.4375ZM10.4167 0C4.66667 0 0 4.66667 0 10.4167C0 16.1667 4.66667 20.8333 10.4167 20.8333C16.1667 20.8333 20.8333 16.1667 20.8333 10.4167C20.8333 4.66667 16.1667 0 10.4167 0ZM10.4167 18.75C5.82292 18.75 2.08333 15.0104 2.08333 10.4167C2.08333 5.82292 5.82292 2.08333 10.4167 2.08333C15.0104 2.08333 18.75 5.82292 18.75 10.4167C18.75 15.0104 15.0104 18.75 10.4167 18.75Z" fill="white"/>
</svg>
