<svg width="102" height="25" viewBox="0 0 102 25" fill="none" xmlns="http://www.w3.org/2000/svg">
<path d="M32.88 20.24C30.8933 20.24 29.34 19.6867 28.22 18.58C27.1 17.4733 26.54 15.8933 26.54 13.84V6H29.78V13.72C29.78 15.0533 30.0533 16.0133 30.6 16.6C31.1467 17.1867 31.9133 17.48 32.9 17.48C33.8867 17.48 34.6533 17.1867 35.2 16.6C35.7467 16.0133 36.02 15.0533 36.02 13.72V6H39.22V13.84C39.22 15.8933 38.66 17.4733 37.54 18.58C36.42 19.6867 34.8667 20.24 32.88 20.24ZM42.4217 20V6H45.6617V17.36H52.6817V20H42.4217ZM56.0834 20V8.64H51.6034V6H63.8034V8.64H59.3234V20H56.0834ZM65.5467 20V6H71.6067C72.8601 6 73.9401 6.20667 74.8467 6.62C75.7534 7.02 76.4534 7.6 76.9467 8.36C77.4401 9.12 77.6867 10.0267 77.6867 11.08C77.6867 12.12 77.4401 13.02 76.9467 13.78C76.4534 14.5267 75.7534 15.1 74.8467 15.5C73.9401 15.9 72.8601 16.1 71.6067 16.1H67.3467L68.7867 14.68V20H65.5467ZM74.4467 20L70.9467 14.92H74.4067L77.9467 20H74.4467ZM68.7867 15.04L67.3467 13.52H71.4267C72.4267 13.52 73.1734 13.3067 73.6667 12.88C74.1601 12.44 74.4067 11.84 74.4067 11.08C74.4067 10.3067 74.1601 9.70667 73.6667 9.28C73.1734 8.85333 72.4267 8.64 71.4267 8.64H67.3467L68.7867 7.1V15.04ZM78.4137 20L84.6538 6H87.8538L94.1138 20H90.7138L85.5938 7.64H86.8738L81.7338 20H78.4137ZM81.5337 17L82.3938 14.54H89.5938L90.4738 17H81.5337Z" fill="white" fill-opacity="0.75"/>
<g clip-path="url(#clip0_97_42)">
<path d="M9.19586 19.3238C9.08197 19.2664 8.95281 19.1914 8.81774 19.0937C8.70064 19.009 8.60175 18.9238 8.51975 18.8449C8.42944 18.7498 8.32761 18.6283 8.22953 18.4779C8.13681 18.3355 8.06955 18.201 8.02051 18.0856C8.35093 18.0369 8.91877 17.9077 9.50618 17.5254C9.82642 17.317 10.1102 17.0568 10.3621 16.7439C10.9511 16.0137 11.2408 15.037 11.2336 13.8115L14.2424 15.2277C14.2497 16.4532 13.96 17.4301 13.371 18.16C12.7833 18.8899 11.9917 19.3384 10.9975 19.5054C10.3023 19.6222 9.70181 19.5621 9.19586 19.3238Z" fill="white"/>
<path d="M14.2425 15.2273L11.2336 13.8109L11.1655 2.05859L14.1744 3.47499L14.2425 15.2273Z" fill="white"/>
<path d="M14.1744 3.4752L11.1655 2.05881L15.7967 1.28125L18.8053 2.69738L14.1744 3.4752Z" fill="white"/>
<path d="M6.66963 23.7266L3.66076 22.3105C3.19394 22.0908 2.75445 21.8109 2.3423 21.4707C0.840818 20.1957 0.0827053 18.1834 0.0668945 15.4321L3.07576 16.8483C3.09184 19.5995 3.84968 21.6118 5.35144 22.8868C5.76359 23.227 6.20281 23.5069 6.66989 23.7266H6.66963Z" fill="white"/>
<mask id="mask0_97_42" style="mask-type:luminance" maskUnits="userSpaceOnUse" x="0" y="15" width="7" height="9">
<path d="M6.66963 23.7266L3.66076 22.3105C3.19394 22.0908 2.75445 21.8109 2.3423 21.4707C0.840818 20.1957 0.0827053 18.1834 0.0668945 15.4321L3.07576 16.8483C3.09184 19.5995 3.84968 21.6118 5.35144 22.8868C5.76359 23.227 6.20281 23.5069 6.66989 23.7266H6.66963Z" fill="white"/>
</mask>
<g mask="url(#mask0_97_42)">
<path d="M6.66963 23.7266L3.66076 22.3105C3.19394 22.0908 2.75445 21.8109 2.3423 21.4707C0.840818 20.1957 0.0827053 18.1834 0.0668945 15.4321L3.07576 16.8483C3.09184 19.5995 3.84968 21.6118 5.35144 22.8868C5.76359 23.227 6.20281 23.5069 6.66989 23.7266" fill="white"/>
</g>
<path d="M3.00887 5.34994L0 3.93381L4.63121 3.15625L7.63981 4.57238L3.00887 5.34994Z" fill="white"/>
<path d="M3.07533 16.8479L0.0667267 15.4318L0 3.93359L3.00887 5.34972L3.07533 16.8479Z" fill="white"/>
</g>
<defs>
<clipPath id="clip0_97_42">
<rect width="18.8054" height="22.4452" fill="white" transform="translate(0 1.28125)"/>
</clipPath>
</defs>
</svg>
